# xmcd
# 
# Track frame offsets:
#     182
#     20292
#     53522
# 
# Disc length: 1212
# 
# Revision: 3
# Processed by: cddbd v1.5.2PL0 Copyright (c) Steve Scherf et al.
# Submitted via: fre:ac v1.0.17
# 
DISCID=1604ba03
DTITLE=Way Out West Feat. Miss Joanna Law - The Gift
DYEAR=1996
DGENRE=
TTITLE0=The Gift (Radio Edit)
TTITLE1=The Gift (Original Mix)
TTITLE2=The Gift (Club Mix)
EXTD=
EXTT0=
EXTT1=
EXTT2=
PLAYORDER=
